<svg xmlns="http://www.w3.org/2000/svg" xmlns:xlink="http://www.w3.org/1999/xlink" width="156" height="176" viewBox="0 0 156 176">
  <defs>
    <filter id="Ellipse_29" x="7" y="15" width="140" height="140" filterUnits="userSpaceOnUse">
      <feOffset dy="15" input="SourceAlpha"/>
      <feGaussianBlur stdDeviation="15" result="blur"/>
      <feFlood flood-color="#09655f" flood-opacity="0.278"/>
      <feComposite operator="in" in2="blur"/>
      <feComposite in="SourceGraphic"/>
    </filter>
    <filter id="Ellipse_30" x="0" y="55" width="95" height="95" filterUnits="userSpaceOnUse">
      <feOffset dy="15" input="SourceAlpha"/>
      <feGaussianBlur stdDeviation="15" result="blur-2"/>
      <feFlood flood-color="#09655f" flood-opacity="0.278"/>
      <feComposite operator="in" in2="blur-2"/>
      <feComposite in="SourceGraphic"/>
    </filter>
    <filter id="Ellipse_34" x="57" y="17" width="95" height="95" filterUnits="userSpaceOnUse">
      <feOffset dy="15" input="SourceAlpha"/>
      <feGaussianBlur stdDeviation="15" result="blur-3"/>
      <feFlood flood-color="#09655f" flood-opacity="0.278"/>
      <feComposite operator="in" in2="blur-3"/>
      <feComposite in="SourceGraphic"/>
    </filter>
    <filter id="Ellipse_38" x="32" y="0" width="95" height="95" filterUnits="userSpaceOnUse">
      <feOffset dy="15" input="SourceAlpha"/>
      <feGaussianBlur stdDeviation="15" result="blur-4"/>
      <feFlood flood-color="#09655f" flood-opacity="0.278"/>
      <feComposite operator="in" in2="blur-4"/>
      <feComposite in="SourceGraphic"/>
    </filter>
    <filter id="Ellipse_31" x="61" y="58" width="95" height="95" filterUnits="userSpaceOnUse">
      <feOffset dy="15" input="SourceAlpha"/>
      <feGaussianBlur stdDeviation="15" result="blur-5"/>
      <feFlood flood-color="#09655f" flood-opacity="0.278"/>
      <feComposite operator="in" in2="blur-5"/>
      <feComposite in="SourceGraphic"/>
    </filter>
    <filter id="Ellipse_33" x="5" y="17" width="95" height="95" filterUnits="userSpaceOnUse">
      <feOffset dy="15" input="SourceAlpha"/>
      <feGaussianBlur stdDeviation="15" result="blur-6"/>
      <feFlood flood-color="#09655f" flood-opacity="0.278"/>
      <feComposite operator="in" in2="blur-6"/>
      <feComposite in="SourceGraphic"/>
    </filter>
    <filter id="Ellipse_37" x="23" y="81" width="95" height="95" filterUnits="userSpaceOnUse">
      <feOffset dy="15" input="SourceAlpha"/>
      <feGaussianBlur stdDeviation="15" result="blur-7"/>
      <feFlood flood-color="#09655f" flood-opacity="0.278"/>
      <feComposite operator="in" in2="blur-7"/>
      <feComposite in="SourceGraphic"/>
    </filter>
  </defs>
  <g id="Group_160" data-name="Group 160" transform="translate(-11 -986)">
    <g id="Ellipse_35" data-name="Ellipse 35" transform="translate(51 1026)" fill="none" stroke="#707070" stroke-width="1">
      <ellipse cx="38" cy="31" rx="38" ry="31" stroke="none"/>
      <ellipse cx="38" cy="31" rx="37.5" ry="30.5" fill="none"/>
    </g>
    <g id="Ellipse_36" data-name="Ellipse 36" transform="translate(146.543 1056.526) rotate(135)" fill="none" stroke="#707070" stroke-width="1">
      <ellipse cx="43.5" cy="40" rx="43.5" ry="40" stroke="none"/>
      <ellipse cx="43.5" cy="40" rx="43" ry="39.5" fill="none"/>
    </g>
    <g transform="matrix(1, 0, 0, 1, 11, 986)" filter="url(#Ellipse_29)">
      <circle id="Ellipse_29-2" data-name="Ellipse 29" cx="25" cy="25" r="25" transform="translate(52 45)" fill="#09655f"/>
    </g>
    <g transform="matrix(1, 0, 0, 1, 11, 986)" filter="url(#Ellipse_30)">
      <g id="Ellipse_30-2" data-name="Ellipse 30" transform="translate(45 85)" fill="none" stroke="#09655f" stroke-width="1">
        <circle cx="2.5" cy="2.5" r="2.5" stroke="none"/>
        <circle cx="2.5" cy="2.5" r="2" fill="none"/>
      </g>
    </g>
    <g transform="matrix(1, 0, 0, 1, 11, 986)" filter="url(#Ellipse_34)">
      <g id="Ellipse_34-2" data-name="Ellipse 34" transform="translate(102 47)" fill="none" stroke="#09655f" stroke-width="1">
        <circle cx="2.5" cy="2.5" r="2.5" stroke="none"/>
        <circle cx="2.5" cy="2.5" r="2" fill="none"/>
      </g>
    </g>
    <g transform="matrix(1, 0, 0, 1, 11, 986)" filter="url(#Ellipse_38)">
      <g id="Ellipse_38-2" data-name="Ellipse 38" transform="translate(77 30)" fill="none" stroke="#09655f" stroke-width="1">
        <circle cx="2.5" cy="2.5" r="2.5" stroke="none"/>
        <circle cx="2.5" cy="2.5" r="2" fill="none"/>
      </g>
    </g>
    <g transform="matrix(1, 0, 0, 1, 11, 986)" filter="url(#Ellipse_31)">
      <circle id="Ellipse_31-2" data-name="Ellipse 31" cx="2.5" cy="2.5" r="2.5" transform="translate(106 88)" fill="#09655f"/>
    </g>
    <g transform="matrix(1, 0, 0, 1, 11, 986)" filter="url(#Ellipse_33)">
      <circle id="Ellipse_33-2" data-name="Ellipse 33" cx="2.5" cy="2.5" r="2.5" transform="translate(50 47)" fill="#09655f"/>
    </g>
    <g transform="matrix(1, 0, 0, 1, 11, 986)" filter="url(#Ellipse_37)">
      <circle id="Ellipse_37-2" data-name="Ellipse 37" cx="2.5" cy="2.5" r="2.5" transform="translate(68 111)" fill="#09655f"/>
    </g>
  </g>
</svg>
