<svg xmlns="http://www.w3.org/2000/svg" xmlns:xlink="http://www.w3.org/1999/xlink" width="74.25" height="74.25" viewBox="0 0 74.25 74.25">
  <defs>
    <filter id="Icon_ionic-ios-close-circle" x="0" y="0" width="74.25" height="74.25" filterUnits="userSpaceOnUse">
      <feOffset dy="6" input="SourceAlpha"/>
      <feGaussianBlur stdDeviation="7.5" result="blur"/>
      <feFlood flood-color="#09655f" flood-opacity="0.38"/>
      <feComposite operator="in" in2="blur"/>
      <feComposite in="SourceGraphic"/>
    </filter>
  </defs>
  <g transform="matrix(1, 0, 0, 1, 0, 0)" filter="url(#Icon_ionic-ios-close-circle)">
    <path id="Icon_ionic-ios-close-circle-2" data-name="Icon ionic-ios-close-circle" d="M18,3.375A14.625,14.625,0,1,0,32.625,18,14.623,14.623,0,0,0,18,3.375Zm3.705,19.92L18,19.589l-3.705,3.705a1.124,1.124,0,1,1-1.589-1.589L16.411,18l-3.705-3.705a1.124,1.124,0,0,1,1.589-1.589L18,16.411l3.705-3.705a1.124,1.124,0,1,1,1.589,1.589L19.589,18l3.705,3.705a1.129,1.129,0,0,1,0,1.589A1.116,1.116,0,0,1,21.705,23.295Z" transform="translate(19.13 13.13)" fill="#333"/>
  </g>
</svg>
